<svg viewBox="0 0 28 28" fill="none" xmlns="http://www.w3.org/2000/svg">
  <g filter="url(#a)">
    <path fill="#F2EC5A" shape-rendering="crispEdges" d="M1 1h24v24H1z" />
    <path
      d="M11.2212 14.7788a3.9999 3.9999 0 0 0 5.656 0l4-4a3.9995 3.9995 0 0 0 1.1226-2.8136 3.9997 3.9997 0 0 0-3.965-3.965 4 4 0 0 0-2.8136 1.1226l-1.1 1.1m.756 4.9a4.0006 4.0006 0 0 0-5.656 0l-4 4a4.0003 4.0003 0 0 0-.0496 5.7056 3.9991 3.9991 0 0 0 2.8632 1.1714 4.0003 4.0003 0 0 0 2.8424-1.221l1.102-1.101 2.898-8.555Z"
      stroke="#000" stroke-opacity=".85" stroke-width="2" stroke-linecap="round" stroke-linejoin="round" />
    <path stroke="#000" stroke-opacity=".85" shape-rendering="crispEdges" d="M1 1h24v24H1z" />
  </g>
  <defs>
    <filter id="a" x=".5" y=".5" width="27" height="27" filterUnits="userSpaceOnUse" color-interpolation-filters="sRGB">
      <feFlood flood-opacity="0" result="BackgroundImageFix" />
      <feColorMatrix in="SourceAlpha" values="0 0 0 0 0 0 0 0 0 0 0 0 0 0 0 0 0 0 127 0" result="hardAlpha" />
      <feOffset dx="2" dy="2" />
      <feComposite in2="hardAlpha" operator="out" />
      <feColorMatrix values="0 0 0 0 0 0 0 0 0 0 0 0 0 0 0 0 0 0 0.85 0" />
      <feBlend in2="BackgroundImageFix" result="effect1_dropShadow_201_2" />
      <feBlend in="SourceGraphic" in2="effect1_dropShadow_201_2" result="shape" />
    </filter>
  </defs>
</svg>